<?xml version="1.0" encoding="UTF-8" standalone="no"?>
<!-- Created with Inkscape (http://www.inkscape.org/) -->

<svg
   xmlns:dc="http://purl.org/dc/elements/1.1/"
   xmlns:cc="http://creativecommons.org/ns#"
   xmlns:rdf="http://www.w3.org/1999/02/22-rdf-syntax-ns#"
   xmlns:svg="http://www.w3.org/2000/svg"
   xmlns="http://www.w3.org/2000/svg"
   xmlns:sodipodi="http://sodipodi.sourceforge.net/DTD/sodipodi-0.dtd"
   xmlns:inkscape="http://www.inkscape.org/namespaces/inkscape"
   width="500"
   height="100"
   viewBox="0 0 132.29166 26.458334"
   version="1.1"
   id="svg1647"
   inkscape:version="0.92.2 (5c3e80d, 2017-08-06)"
   sodipodi:docname="logo.svg">
  <defs
     id="defs1641" />
  <sodipodi:namedview
     id="base"
     pagecolor="#ffffff"
     bordercolor="#666666"
     borderopacity="1.0"
     inkscape:pageopacity="0.0"
     inkscape:pageshadow="2"
     inkscape:zoom="1.979899"
     inkscape:cx="221.90264"
     inkscape:cy="17.13291"
     inkscape:document-units="mm"
     inkscape:current-layer="layer1"
     showgrid="false"
     units="px"
     inkscape:window-width="1920"
     inkscape:window-height="1017"
     inkscape:window-x="-8"
     inkscape:window-y="-8"
     inkscape:window-maximized="1" />
  <metadata
     id="metadata1644">
    <rdf:RDF>
      <cc:Work
         rdf:about="">
        <dc:format>image/svg+xml</dc:format>
        <dc:type
           rdf:resource="http://purl.org/dc/dcmitype/StillImage" />
        <dc:title />
      </cc:Work>
    </rdf:RDF>
  </metadata>
  <g
     inkscape:label="Capa 1"
     inkscape:groupmode="layer"
     id="layer1"
     transform="translate(0,-270.54165)">
    <path
       inkscape:connector-curvature="0"
       id="path44"
       style="font-style:normal;font-variant:normal;font-weight:normal;font-stretch:normal;font-size:15.98669529px;line-height:1.25;font-family:BlackPearl;-inkscape-font-specification:BlackPearl;letter-spacing:0px;word-spacing:0px;fill:#ffffff;fill-opacity:1;stroke:none;stroke-width:0.53288984;stroke-miterlimit:4;stroke-dasharray:none;stroke-opacity:1"
       d="m 33.607545,290.85624 q -0.01599,0.032 -0.111907,0.0639 -0.07993,0.048 -0.09592,0.0639 h -0.01599 q -0.01599,-0.016 -0.03197,-0.016 0,0 0,0.016 h -0.01599 -0.03197 v 0.016 l -0.03197,-0.016 h -0.01599 q -0.207827,0.032 -1.135056,-0.0959 l -0.03197,0.016 q -0.01599,0 -0.06395,-0.016 -0.03197,-0.016 -0.06395,-0.016 -0.01599,0 -0.06395,0 -0.03197,0.016 -0.04796,0 -0.01599,0 -0.06395,-0.016 -0.04796,-0.016 -0.06395,-0.016 -0.06395,-0.016 -0.127894,-0.032 -0.06395,0.048 -0.09592,0.048 -0.2398,0 -0.639468,0.032 -0.38368,0.032 -0.591507,0.032 -0.207827,0 -0.719402,-0.032 h -0.01599 q -0.03197,0 -0.04796,-0.016 -0.239801,0.032 -0.607495,0.20783 -0.03197,0.016 -0.07993,0.032 -0.04796,0.016 -0.07993,0.016 -0.03197,0.016 -0.04796,0.032 v 0.032 q -0.01599,0 -0.03197,0 h -0.03197 q -0.111906,0.048 -0.38368,0.15987 -0.03197,0.016 -0.111907,0.048 -0.06395,0.032 -0.09592,0.048 -0.03197,0.016 -0.09592,0.048 -0.06395,0.032 -0.111907,0.048 -0.04796,0.016 -0.07993,0.016 h -0.01599 l -0.01599,0.016 -0.01599,-0.016 v 0 l -0.01599,0.016 q -0.01599,0.016 -0.03197,0.016 0,0 -0.01599,-0.016 l -0.01599,-0.016 q -0.09592,-0.016 -0.111907,-0.016 0,-0.016 -0.01599,-0.016 h -0.01599 q -0.03197,-0.016 -0.127893,-0.12789 -0.09592,-0.0959 -0.07993,-0.1279 0,-0.016 -0.01599,-0.0799 -0.03197,-0.0799 -0.01599,-0.11191 l -0.01599,-0.032 v -0.016 -0.032 l 0.01599,-0.032 q 0,-0.048 -0.01599,-0.15986 0,-0.0959 0,-0.15987 0.01599,-0.064 0.04796,-0.0959 0.127894,-0.0959 0.463615,-0.25579 0.07993,-0.032 0.207827,-0.0799 l 0.03197,-0.032 q 0.03197,-0.032 0.09592,-0.0639 0.06395,-0.032 0.07993,-0.048 0.01599,-0.016 0.03197,-0.048 0.01599,-0.032 0.03197,-0.032 l 0.143881,-0.17586 0.01599,-0.016 v 0 -0.016 -0.016 q 0.01599,-0.048 0.06395,-0.12789 0.04796,-0.0959 0.04796,-0.12789 l 0.01599,-0.016 q -0.06395,-0.27178 -0.09592,-0.63947 v -0.016 q -0.01599,-0.17585 -0.04796,-0.4796 -0.01599,-0.31973 -0.01599,-0.39966 l -0.07993,-0.048 q 0,-0.048 0,-0.1279 0.01599,-0.0799 0.01599,-0.14388 -0.01599,-0.032 -0.04796,-0.0959 -0.03197,-0.0799 -0.03197,-0.12789 0,-0.048 0.03197,-0.1279 0.04796,-0.0959 0.06395,-0.14388 0.01599,-0.12789 0.04796,-0.31973 0.03197,-0.19184 0.04796,-0.30375 0.01599,-0.048 0.04796,-0.14388 0.04796,-0.1119 0.04796,-0.15986 0,-0.14388 -0.06395,-0.43164 -0.04796,-0.30375 -0.04796,-0.35171 0,-0.048 -0.06395,-0.33572 -0.04796,-0.28776 -0.04796,-0.43164 0,-0.15987 0.01599,-0.43164 0.03197,-0.28776 0.03197,-0.39967 0,-0.048 -0.03197,-0.0799 -0.03197,-0.048 -0.03197,-0.0959 0,-0.032 0.03197,-0.0799 0.04796,-0.0639 0.04796,-0.0799 0,-0.064 -0.01599,-0.11191 -0.01599,-0.048 -0.03197,-0.0799 -0.01599,-0.048 -0.01599,-0.0639 0,-0.016 0.03197,-0.032 0.04796,-0.032 0.04796,-0.048 0.01599,-0.2398 0.01599,-0.41566 h -0.03197 -0.04796 q -0.03197,-0.016 -0.01599,-0.032 0.03197,-0.032 0.06395,-0.064 l 0.03197,-0.016 q 0.04796,-0.15987 0.04796,-0.3677 0,-0.20782 -0.01599,-0.33572 0,-0.12789 -0.04796,-0.35171 -0.03197,-0.2398 -0.03197,-0.27177 0,-0.064 0.01599,-0.2398 0.01599,-0.17585 -0.01599,-0.19184 l -0.07993,-0.032 q 0,-0.032 0.03197,-0.0639 0.04796,-0.048 0.04796,-0.064 0.01599,-0.31973 0.127893,-0.76736 -0.01599,0 -0.03197,0 -0.01599,0 -0.03197,0 0,-0.016 0,-0.032 v -0.032 q -0.01599,-0.016 -0.04796,-0.016 h -0.01599 q 0,0 0,-0.016 v -0.016 q -0.03197,-0.048 -0.06395,-0.0639 l -0.01599,0.016 v -0.048 q -0.04796,-0.0639 -0.207827,-0.15986 -0.01599,0 -0.03197,-0.016 l -0.03197,-0.032 -0.01599,0.016 -0.01599,-0.016 v -0.016 q -0.03197,-0.016 -0.06395,-0.032 -0.03197,-0.032 -0.04796,-0.048 -0.01599,0 -0.04796,0 -0.01599,0 -0.03197,0 0,-0.016 -0.03197,-0.016 -0.03197,0 -0.04796,-0.016 h -0.01599 v 0 -0.016 h -0.01599 q 0,0 -0.01599,-0.016 0,0 0,-0.016 -0.04796,-0.032 -0.04796,-0.048 h -0.01599 v -0.016 q -0.14388,-0.20783 -0.127893,-0.25579 l -0.01599,-0.064 q -0.01599,-0.0639 -0.01599,-0.0799 v -0.032 l -0.01599,-0.016 0.01599,-0.016 q 0,-0.016 0,-0.032 0.01599,-0.28776 0.03197,-0.28776 0.06395,-0.032 0.303747,-0.0799 0.07993,-0.016 0.175853,-0.016 0.111907,0 0.191841,-0.016 0.03197,0 0.07993,0 0.06395,-0.016 0.09592,-0.016 0.07993,-0.016 0.223814,0 0.159867,0 0.207827,0 0.01599,0 0.03197,0 l 0.01599,0.016 q 0.01599,0 0.03197,0 0.01599,-0.016 0.03197,-0.016 0.14388,0 0.383681,0.0639 0.01599,-0.016 0.01599,-0.032 0.01599,-0.016 0.03197,-0.016 0.127893,-0.032 0.527561,-0.0959 0.415654,-0.0799 0.479601,-0.048 0.03197,0.016 0.04796,0.032 0.03197,0 0.04796,0 0.01599,0 0.04796,0 0.03197,-0.016 0.09592,0 0.239801,0.016 0.319734,0.0639 0.01599,0 0.07993,0 0.06395,-0.016 0.07993,-0.016 0.01599,0 0.06395,0.048 0.06395,0.032 0.09592,0.032 0.127893,0.032 0.399667,0.0959 0.271774,0.048 0.383681,0.0799 0.01599,0 0.03197,-0.016 0.03197,0 0.03197,0.016 l 0.01599,0.016 q 0.01599,-0.048 0.09592,-0.048 0.111907,0 0.223813,-0.048 0.01599,-0.016 0.03197,-0.016 h 0.01599 l 0.01599,-0.016 q 0,-0.016 0.01599,-0.016 0.01599,0 0.03197,0.016 0.01599,0 0.03197,0 0.06395,0 0.111907,-0.048 l 0.01599,-0.016 q 0.01599,0 0.01599,0 0.01599,-0.016 0.01599,-0.048 0.01599,-0.032 0.03197,-0.032 0.04796,-0.032 0.207827,0 0.111907,0.032 0.111907,0.048 0.03197,0.016 0.04796,0.032 0.01599,0 0.03197,0.14388 l 0.03197,0.032 0.03197,0.032 q 0,0.032 0.01599,0.20782 0.03197,0.15987 0.03197,0.28776 0,0.032 -0.01599,0.0959 -0.01599,0.048 -0.03197,0.048 0,0.016 -0.01599,0.016 0,-0.016 0,0 v 0.016 h -0.01599 v 0.016 0 q -0.01599,0 -0.01599,0.016 -0.06395,0.0639 -0.431641,0.22381 v 0.032 q -0.01599,0 -0.03197,0.016 -0.01599,0 -0.03197,0 0,0 -0.01599,0.016 0,0.016 -0.01599,0.016 0,0 -0.03197,0 h -0.01599 q -0.03197,0 -0.06395,0.016 0.01599,0.016 0.01599,0.048 0.01599,0.20783 -0.03197,0.59151 -0.04796,0.3677 -0.04796,0.49559 0,0.0959 0.03197,0.27177 0.03197,0.15987 0.04796,0.2398 0,0.15987 0,0.65546 0,0.49559 0.03197,0.55953 0,0.016 0,0.0639 0,0.048 0,0.0639 0,0.032 0.03197,0.0799 0.03197,0.032 0.03197,0.048 0.04796,0.33572 0.06395,1.00716 2.17419,0.032 2.909578,-0.064 0.01599,-0.016 0.04796,-0.032 0.03197,-0.032 0.09592,-0.048 0.06395,-0.016 0.09592,-0.032 0.01599,-0.016 0.04796,-0.048 l 0.01599,-0.032 q 0.01599,-0.016 0.09592,-0.0639 0.07993,-0.048 0.09592,-0.0799 0,-0.016 0.01599,-0.016 0.01599,-0.016 0,-0.032 0,-0.016 0.01599,-0.016 0.03197,-0.048 0.127894,-0.1279 0.09592,-0.0959 0.111907,-0.1119 0.01599,-0.016 0.04796,-0.016 0.03197,-0.016 0.06395,-0.016 0.04796,0 0.06395,-0.016 -0.01599,0.016 -0.01599,-0.0959 v -0.016 q 0.01599,-0.048 0.03197,-0.048 0.01599,-0.016 0.03197,0.016 0.03197,0.016 0.04796,0 l -0.01599,-0.032 0.03197,-0.016 q 0.01599,-0.032 0.03197,-0.032 0.03197,-0.016 0.04796,0 -0.01599,-0.048 0.01599,-0.048 0.09592,-0.30374 0.09592,-0.33572 0.01599,-0.15986 0.03197,-0.86328 0.01599,-0.048 0.03197,-0.19184 0.01599,-0.15987 0,-0.2398 -0.03197,-0.35171 -0.319733,-1.16703 -0.03197,-0.11191 -0.159867,-0.28776 -0.127894,-0.17585 -0.207827,-0.27177 -0.07993,-0.11191 -0.127894,-0.27178 -0.03197,-0.15986 0.07993,-0.25578 0.511575,-0.63947 0.479601,-0.68743 -0.01599,-0.032 -0.38368,0 -0.143881,0.016 -0.287761,0.032 -0.14388,0.016 -0.19184,0.032 -0.04796,0 -0.111907,0 -0.04796,0 -0.09592,-0.016 -0.03197,-0.016 -0.09592,-0.048 -0.04796,-0.016 -0.447628,-0.2398 -0.399667,-0.2398 -0.479601,-0.27178 l -0.351707,-0.0959 -0.607494,-0.048 -0.191841,-0.032 q -0.511574,-0.016 -1.103082,0 v 0.032 l -0.351707,-0.016 q -0.655455,0.032 -3.852794,0.39966 -0.223813,0.032 -0.671441,0.0639 -0.431641,0.016 -0.527561,0.032 l -0.111907,0.032 -0.33572,-0.016 q -1.151042,0.016 -2.062284,-0.0959 -0.719401,-0.0959 -1.007162,-0.19184 -0.367694,-0.11191 -0.767361,-0.30375 -0.383681,-0.19184 -0.447628,-0.31973 l -0.19184,-0.12789 0.04796,-0.032 -0.159867,-0.15986 0.01599,-0.14388 q 0,-0.0799 -0.03197,-0.14388 -0.01599,-0.0639 -0.03197,-0.0799 -0.01599,-0.016 -0.01599,-0.048 0.01599,-0.048 0.06395,-0.0799 v -0.1279 q 0.03197,-0.032 0.207827,-0.12789 0.191841,-0.11191 0.351708,-0.17585 l 0.175853,-0.0799 q 0.04796,0.016 0.06395,0.016 0.01599,0 0.04796,0 0.04796,-0.016 0.09592,-0.032 l 0.271774,0.016 0.111907,-0.0639 0.127893,0.032 0.591508,-0.0639 q 0.303747,0.54355 0.847295,0.70342 0.863282,0.2398 2.190177,0.19184 0.255787,0 1.262949,-0.11191 0.319734,-0.032 1.582683,-0.15987 1.262949,-0.14388 1.710576,-0.19184 0.06395,-0.016 0.191841,-0.016 0.127893,-0.016 0.175853,-0.016 0.09592,-0.016 0.207827,-0.032 0.111907,-0.016 0.159867,-0.016 3.213326,-0.20783 4.811996,0.30375 0.543547,0.15987 1.007162,0.49559 0.4796,0.33572 0.687427,0.57552 0.223814,0.2398 0.559535,0.68742 0.06395,0.0799 0.19184,0.22382 0.14388,0.12789 0.255787,0.22381 l 0.111907,0.0959 q 0.415654,0.62348 0.511574,1.24696 0.04796,0.25579 -0.01599,0.38369 -0.04796,0.12789 -0.01599,0.36769 l 0.06395,0.14388 q -0.04796,0.94321 -0.271774,1.59867 -0.01599,0.0799 -0.07993,0.17585 -0.06395,0.0959 -0.111906,0.15987 l -0.04796,0.0639 q 0,-0.1279 -0.06395,-0.1279 -0.04796,-0.016 -0.04796,0.0799 0.01599,0.25578 -0.207827,0.5915 -0.223814,0.33572 -0.463615,0.51158 -1.135055,0.79933 -2.509911,1.26295 -0.09592,0.032 -0.319734,0.0799 -0.207827,0.032 -0.223813,0.048 -0.03197,0 -0.127894,0.032 -0.09592,0.032 -0.207827,0.048 -0.159867,0.016 -0.575521,0.032 -1.023149,0.048 -1.151042,0.048 -0.111907,0 -0.255787,0 -0.127894,0 -0.223814,0 -0.111907,0 -0.271774,0.032 -0.14388,0.016 -0.19184,0 -0.255787,0 -0.527561,-0.032 0.14388,0.1119 0.175854,0.15986 0.09592,0.14389 0.06395,0.38369 -0.01599,0.0639 -0.09592,0.0959 -0.07993,0.032 -0.06395,0.1119 l 0.06395,0.032 q 0,0.0639 0,0.20782 0,0.14388 -0.01599,0.25579 v 0.016 q 0,0.048 -0.01599,0.0639 0,0.016 -0.01599,0.048 -0.01599,0.016 -0.04796,0 h -0.04796 q -0.03197,0 -0.06395,0 h -0.04796 q 0.127894,0.048 0.175854,0.11191 0.06395,0.048 0.04796,0.0799 0,0.032 -0.03197,0.0959 -0.03197,0.0639 -0.04796,0.0799 -0.111907,0.41565 -0.01599,0.84729 0.01599,0.016 0,0.0799 0,0.0639 0,0.0799 0.01599,0.032 0.04796,0.0639 0.03197,0.032 0.03197,0.0799 0,0.032 -0.03197,0.11191 -0.03197,0.0639 -0.04796,0.0959 -0.03197,0.20782 0.07993,0.41565 0.01599,0.032 0.03197,0.0959 0.03197,0.048 0.04796,0.0799 0.03197,0.048 0.127893,0.0959 0.111907,0.048 0.111907,0.0639 0.127894,0.22382 -0.01599,0.52756 0.03197,0 0.06395,0 0.01599,0 0.04796,0 0.03197,0 0.04796,0 0.03197,-0.016 0.06395,-0.032 0.03197,-0.032 0.04796,-0.032 0.127894,0 0.399668,0.12789 0.19184,0.0959 0.207827,0.11191 0.03197,0.048 0.06395,0.0639 0.01599,0.016 -0.01599,0.17586 l 0.04796,0.0639 0.03197,0.048 q -0.03197,0.064 -0.06395,0.15987 -0.01599,0.11191 -0.06395,0.20783 -0.03197,0.0959 -0.07993,0.19184 z" />
    <path
       inkscape:connector-curvature="0"
       id="path46"
       style="font-style:normal;font-variant:normal;font-weight:normal;font-stretch:normal;font-size:15.98669529px;line-height:1.25;font-family:BlackPearl;-inkscape-font-specification:BlackPearl;letter-spacing:0px;word-spacing:0px;fill:#ffffff;fill-opacity:1;stroke:none;stroke-width:0.53288984;stroke-miterlimit:4;stroke-dasharray:none;stroke-opacity:1"
       d="m 42.066256,282.86289 q 0.09592,-0.0639 0.431641,0.016 0.207827,0.0639 1.023148,0.048 0.799335,0 0.991175,0 h 0.511575 q 0.303747,0 0.399667,0.0799 0.09592,0.0799 0.07993,0.33572 0,0.22381 -0.07993,0.30375 -0.06395,0.0639 -0.33572,0.1119 -0.159867,0.016 -0.207828,0.0639 -0.04796,0.032 -0.111906,0.15987 -0.287761,0.7194 -0.239801,1.58268 0.03197,0.52756 -0.03197,0.68743 -0.04796,0.14388 -0.303747,0.22381 -0.191841,0.048 -0.191841,0.0959 0,0.048 0.271774,0.20783 l 0.271774,0.15987 -0.01599,0.33572 q -0.06395,0.68743 -0.06395,0.86328 0,0.15987 0.07993,0.33572 0.127893,0.22381 0.159867,0.25579 0.03197,0.032 0.07993,0.14388 0.127894,0.22381 0.431641,0.28776 0.495588,0.0799 0.575521,0.30375 0.111907,0.30374 -0.19184,0.65545 l -0.159867,0.17585 -0.463614,-0.048 q -0.511575,-0.032 -1.45479,-0.032 -0.959201,0.016 -1.039135,-0.032 -0.07993,-0.048 -0.415654,-0.048 -0.271774,-0.016 -0.319734,-0.11191 -0.09592,-0.15987 0,-0.33572 0.111907,-0.19184 0.495588,-0.54355 l 0.479601,-0.46361 v -0.38368 q 0.01599,-0.6075 0.03197,-2.09426 l 0.01599,-1.69459 -0.143881,-0.38368 q -0.111906,-0.27177 -0.175853,-0.31974 -0.04796,-0.0639 -0.223814,-0.1119 -0.431641,-0.1279 -0.431641,-0.33572 0,-0.0799 0.09592,-0.25579 0.09592,-0.19184 0.175854,-0.2398 z" />
    <path
       inkscape:connector-curvature="0"
       id="path48"
       style="font-style:normal;font-variant:normal;font-weight:normal;font-stretch:normal;font-size:15.98669529px;line-height:1.25;font-family:BlackPearl;-inkscape-font-specification:BlackPearl;letter-spacing:0px;word-spacing:0px;fill:#ffffff;fill-opacity:1;stroke:none;stroke-width:0.53288984;stroke-miterlimit:4;stroke-dasharray:none;stroke-opacity:1"
       d="m 47.94936,283.10269 q 0.07993,-0.0639 0.271773,-0.14388 0.191841,-0.0799 0.543548,-0.048 0.751375,0.048 1.93439,0.0799 1.183016,0.016 1.678603,-0.016 1.246962,-0.0959 1.950377,0.15986 0.287761,0.0959 0.447628,0.15987 0.367694,0.11191 0.703414,0.33572 0.351707,0.20783 0.351707,0.35171 0,0.0799 0.111907,0.12789 0.09592,0.048 0.127894,0.14388 0.111907,0.52756 0.111907,0.67144 0.01599,0.0799 0.111907,0.19184 0.07993,0.0799 0.06395,0.1279 0,0.048 -0.07993,0.27177 -0.159867,0.44763 -0.495588,0.83131 -0.319734,0.36769 -0.671441,0.51157 -0.223814,0.0959 -0.223814,0.1279 0,0.032 0.383681,0.39966 0.383681,0.3677 0.591508,0.52757 0.223814,0.17585 0.559534,0.54354 0.335721,0.33572 0.463614,0.39967 0.143881,0.064 0.143881,0.11191 0,0.0799 0.4796,0.52756 0.479601,0.44763 0.575521,0.46361 0.143881,0.032 0.191841,0.19184 0.03197,0.14388 0.351707,0.30375 0.303747,0.15987 0.719401,0.25579 0.399668,0.1119 1.262949,0.0799 0.847295,-0.048 0.895255,0 0.04796,0.032 0.14388,0.032 0.06395,0 0.06395,0.032 0.01599,0.032 0,0.14388 -0.03197,0.19184 -0.127893,0.27177 -0.09592,0.0959 -0.367694,0.17586 -0.447628,0.12789 -1.374856,0.12789 -0.911242,0.016 -1.438803,-0.0959 -0.559534,-0.12789 -1.199002,-0.46362 -0.159867,-0.0959 -0.575521,-0.28776 -0.879268,-0.43164 -2.014323,-1.42281 -0.239801,-0.19184 -0.527561,-0.41566 -0.303748,-0.2398 -0.815322,-0.73538 -0.527561,-0.51158 -0.943215,-0.79934 -0.799335,-0.54355 -0.799335,-0.68743 0,-0.14388 0.127894,-0.19184 0.14388,-0.0639 0.559534,-0.12789 1.199002,-0.15987 1.518736,-0.41565 0.271774,-0.22382 0.255787,-1.02315 -0.01599,-0.57552 -0.38368,-0.83131 -0.239801,-0.17585 -0.527561,-0.2398 -0.287761,-0.0639 -0.959202,-0.0639 h -0.783348 l -0.159867,0.15987 -0.159867,0.17585 0.03197,1.47078 q 0.03197,1.51873 -0.01599,1.77452 -0.06395,0.27178 -0.01599,0.33572 0.06395,0.0639 0.04796,0.4796 -0.01599,0.39967 0.01599,0.43164 0.03197,0.032 0.03197,0.31974 0,0.19184 0.01599,0.27177 0.03197,0.0639 0.14388,0.17585 0.111907,0.1279 0.175854,0.15987 0.07993,0.016 0.2398,0.016 0.271774,0.016 0.383681,0.0799 0.127894,0.0639 0.09592,0.2398 -0.04796,0.19184 -0.111907,0.28776 -0.06395,0.11191 -0.207827,0.11191 -0.14388,0.016 -0.639468,-0.048 -0.38368,-0.048 -1.726563,-0.048 -1.262949,0 -1.358869,-0.016 -0.159867,-0.0639 -0.07993,-0.33572 0.03197,-0.14388 0.111907,-0.19184 0.09592,-0.048 0.303747,-0.048 0.159867,-0.016 0.303747,-0.2398 0.09592,-0.15987 0.111907,-0.27177 0.03197,-0.11191 0.01599,-0.51158 -0.01599,-0.54354 0.01599,-0.63946 0.03197,-0.0799 0.303748,-0.14388 0.271773,-0.0639 0.271773,-0.0959 0,-0.032 -0.159867,-0.15987 -0.14388,-0.14388 -0.255787,-0.20783 -0.07993,-0.0639 -0.09592,-1.37485 -0.03197,-1.21499 -0.03197,-1.71058 0,-0.25579 -0.01599,-0.31973 -0.01599,-0.0799 -0.09592,-0.14389 -0.14388,-0.0799 -0.431641,-0.14388 -0.511574,-0.1119 -0.511574,-0.3517 0,-0.11191 0.06395,-0.15987 z" />
    <path
       inkscape:connector-curvature="0"
       id="path50"
       style="font-style:normal;font-variant:normal;font-weight:normal;font-stretch:normal;font-size:15.98669529px;line-height:1.25;font-family:BlackPearl;-inkscape-font-specification:BlackPearl;letter-spacing:0px;word-spacing:0px;fill:#ffffff;fill-opacity:1;stroke:none;stroke-width:0.53288984;stroke-miterlimit:4;stroke-dasharray:none;stroke-opacity:1"
       d="m 63.167696,287.01943 q 0,-0.032 0,-0.0959 -0.03197,-0.0799 -0.04796,-0.15987 -0.01599,-0.032 -0.01599,-0.048 0,-0.032 0.01599,-0.032 h 0.01599 q -0.01599,-0.016 -0.01599,-0.032 -0.04796,-0.032 -0.06395,-0.19184 0,-0.032 0,-0.0639 -0.01599,-0.016 -0.03197,-0.032 -0.01599,-0.032 -0.01599,-0.048 -0.01599,-0.032 -0.01599,-0.0639 0.01599,-0.048 0.01599,-0.0639 -0.01599,-0.048 -0.03197,-0.0799 -0.01599,-0.032 -0.03197,-0.048 l -0.01599,-0.032 q -0.01599,-0.016 0,-0.032 l 0.01599,-0.032 q -0.01599,-0.0799 -0.03197,-0.14388 -0.01599,-0.016 -0.01599,-0.032 -0.01599,-0.016 -0.01599,-0.048 0,-0.032 -0.01599,-0.0639 h -0.01599 l -0.01599,0.016 0.01599,-0.0959 q -0.01599,-0.0959 -0.04796,-0.22381 -0.01599,-0.016 -0.01599,-0.032 -0.01599,-0.032 -0.06395,-0.048 -0.06395,0.22381 -0.09592,0.30374 0,0.016 -0.01599,0.048 0,0.016 0,0.032 -0.01599,0.016 -0.01599,0.048 0.01599,0.016 0,0.016 -0.03197,0.17585 -0.14388,0.52756 -0.111907,0.33572 -0.127893,0.39966 -0.03197,0.11191 -0.175854,0.38368 0.207827,0 0.223814,0 v 0 q 0.01599,0 0.01599,0 0.01599,0 0.01599,0 0.01599,-0.016 0.03197,-0.016 0.04796,-0.016 0.127894,-0.016 0.07993,0 0.14388,0 0.06395,0 0.111907,0 0.01599,0 0.207827,0.048 l 0.01599,-0.016 q 0.01599,-0.032 0.03197,-0.032 0.03197,-0.016 0.07993,-0.016 0.01599,0 0.01599,0.016 z m 3.38918,2.94155 q 0,0.016 -0.03197,0.048 -0.03197,0.032 -0.03197,0.048 v 0 q -0.01599,0 -0.01599,0.016 0,0 -0.01599,0 0,-0.016 0,-0.016 v 0.016 h -0.01599 q -0.09592,0.048 -0.495588,0.064 v 0.016 q -0.01599,0 -0.03197,0 h -0.03197 q -0.01599,0 -0.03197,0 -0.01599,0.016 -0.03197,0.016 0,0 -0.03197,-0.016 -0.01599,0 -0.03197,0 -0.03197,0 -0.07993,-0.016 -0.04796,0 -0.06395,0 -0.01599,0 -0.04796,-0.016 -0.01599,0 -0.03197,0 -0.04796,0 -0.127893,0 -0.06395,0.016 -0.07993,0.032 -0.01599,0 -0.09592,0 -0.06395,0.016 -0.111907,0.016 -0.03197,0 -0.111907,0 -0.07993,0 -0.111906,0 -0.01599,0 -0.03197,0 -0.01599,0.016 -0.03197,0.016 0,0 -0.01599,0 l -0.01599,-0.016 q -0.03197,0 -0.06395,0.016 -0.01599,0 -0.03197,0 v -0.016 q -0.06395,0 -0.111907,0.016 h -0.03197 q -0.07993,-0.016 -0.351707,0.016 -0.01599,0 -0.06395,0 h -0.04796 l -0.01599,0.016 h -0.01599 -0.01599 q -0.07993,0 -0.207827,-0.016 h -0.03197 q -0.04796,0 -0.06395,-0.016 -0.01599,0 -0.04796,0 -0.03197,0 -0.04796,0 l -0.03197,-0.016 v 0 q -0.01599,0 -0.03197,0 v -0.016 h -0.01599 v 0 q 0,-0.016 -0.01599,-0.016 -0.03197,-0.032 -0.03197,-0.048 -0.06395,-0.14388 -0.03197,-0.17586 v -0.048 q 0,-0.032 0.01599,-0.032 0,-0.016 0,-0.032 v 0 l 0.01599,-0.016 v -0.016 l 0.06395,-0.19184 q 0.04796,-0.016 0.207827,-0.032 0.03197,-0.016 0.127893,-0.016 0.09592,0 0.127894,0 -0.01599,-0.0639 -0.207827,-0.55953 l -0.03197,-0.016 q -0.01599,-0.032 -0.03197,-0.0799 0,-0.048 -0.01599,-0.0799 0,-0.016 -0.03197,-0.048 -0.01599,-0.032 -0.03197,-0.0639 0,-0.032 0,-0.0799 0,-0.0639 -0.01599,-0.0799 0,-0.0799 -0.03197,-0.19184 -0.01599,-0.12789 -0.03197,-0.17585 -0.01599,-0.048 -0.04796,-0.0959 -0.01599,-0.032 -0.01599,-0.0639 h -0.01599 q -0.01599,0 -0.03197,0 -0.01599,0 -0.03197,0.016 -0.01599,0 -0.03197,0 0,0 -0.01599,0 -0.01599,-0.016 -0.03197,-0.016 -0.03197,-0.016 -0.07993,-0.016 -0.03197,-0.016 -0.04796,-0.016 -0.01599,0 -0.03197,0 -0.01599,-0.016 -0.03197,-0.032 -0.03197,0 -0.111907,0.016 -0.06395,0.016 -0.07993,0.016 0,0 -0.06395,0.016 -0.06395,0 -0.09592,0 -0.03197,0 -0.09592,0 -0.06395,-0.016 -0.09592,-0.016 -0.01599,0 -0.03197,0.016 0,0 -0.01599,0 0,0 -0.01599,0 l -0.01599,-0.016 q -0.01599,0 -0.04796,0 0,0.016 -0.01599,0.016 0,0 0,0 0,-0.016 -0.01599,-0.032 -0.04796,0 -0.09592,0 0.01599,0.016 0,0.016 l -0.01599,-0.016 q -0.06395,-0.016 -0.303747,0 -0.01599,0 -0.04796,0 -0.03197,-0.016 -0.03197,0 l -0.01599,0.016 v -0.016 q -0.01599,0 -0.03197,0 -0.03197,-0.016 -0.07993,-0.016 0.01599,0.048 -0.04796,0.17586 -0.09592,0.22381 -0.159867,0.46361 0,0.016 -0.01599,0.048 0,0.016 -0.01599,0.032 0,0.016 0,0.048 0.01599,0.016 0,0.032 0,0.016 -0.03197,0.0639 -0.01599,0.032 -0.01599,0.048 -0.06395,0.11191 -0.06395,0.2398 0,0.016 -0.01599,0.048 0,0.016 0,0.048 0,0.016 0.01599,0.0639 0.01599,0.032 0.01599,0.048 -0.01599,0.0959 -0.07993,0.20783 0.06395,0.016 0.14388,0 0.01599,0 0.01599,0.016 0.01599,0 0.01599,0 0.01599,0 0.01599,0 0.01599,-0.016 0.01599,-0.016 0.01599,0 0.03197,0.016 h 0.01599 q 0.04796,0.016 0.09592,0 h 0.01599 q 0.01599,-0.016 0.01599,-0.016 0.01599,0 0.03197,-0.016 l 0.01599,-0.016 q 0.04796,-0.016 0.159867,0.032 0.06395,0.048 0.07993,0.048 0.01599,0.016 0.01599,0.032 0.01599,0 0.01599,0.0799 l 0.01599,0.016 0.01599,0.032 -0.03197,0.31973 q 0,0.016 -0.03197,0.048 l -0.03197,0.032 q -0.01599,0 -0.01599,0 h -0.01599 v 0.016 h -0.01599 v 0.016 h -0.01599 q -0.111907,0.048 -0.495587,0.032 v 0.016 q -0.01599,0 -0.03197,0 -0.01599,0 -0.03197,0 0,0 -0.01599,0 -0.01599,0 -0.03197,0 -0.01599,0 -0.03197,0 l -0.01599,-0.016 q -0.03197,0 -0.07993,-0.016 -0.03197,0 -0.06395,0 H 61.2174 q -0.03197,-0.016 -0.04796,-0.016 -0.03197,-0.016 -0.09592,-0.016 l -0.06395,0.016 q -0.01599,0 -0.07993,0 -0.06395,0.016 -0.09592,0.016 -0.03197,0 -0.09592,-0.016 -0.06395,0 -0.07993,0 -0.01599,0 -0.03197,0 0,0 -0.01599,0 0,0 -0.01599,0 h -0.01599 q -0.01599,-0.016 -0.04796,0 -0.01599,0 -0.01599,-0.016 0,0 -0.01599,0 -0.04796,0 -0.07993,0 v 0.016 l -0.03197,-0.016 q -0.07993,-0.016 -0.28776,0.016 -0.01599,0 -0.04796,0 -0.03197,0 -0.04796,0 v 0.016 q -0.01599,0 -0.03197,0 v -0.016 q -0.04796,0.016 -0.175853,0 -0.01599,0 -0.04796,0 -0.03197,0 -0.04796,0 -0.01599,0 -0.04796,0 -0.06395,0 -0.07993,-0.016 h -0.01599 v 0.016 -0.016 q 0,0 0,0 h -0.01599 l -0.01599,-0.016 -0.03197,-0.032 v 0 q -0.01599,0 -0.01599,-0.016 -0.07993,-0.1119 -0.04796,-0.14388 v -0.048 q 0,-0.032 0.01599,-0.032 0,-0.016 -0.01599,-0.032 v 0 0 q 0.01599,-0.016 0.01599,-0.032 l 0.06395,-0.17585 q 0.04796,-0.032 0.207827,-0.064 0.04796,0 0.175854,0 -0.01599,-0.048 -0.01599,-0.0639 0.01599,-0.016 0.09592,-0.1279 0.03197,-0.032 0.07993,-0.0799 0.04796,-0.048 0.06395,-0.0639 0,-0.016 0.01599,-0.032 0.01599,-0.032 0.03197,-0.048 0.01599,-0.016 0.03197,-0.048 0.03197,-0.048 0.04796,-0.0639 0.01599,-0.032 0.03197,-0.048 0,-0.016 0,-0.016 0.01599,0 0.01599,-0.016 v -0.016 q 0.01599,-0.048 0.06395,-0.12789 0.06395,-0.0959 0.07993,-0.1279 l 0.09592,-0.0959 q 0,-0.016 0,-0.032 -0.01599,-0.016 -0.01599,-0.032 0,-0.016 0.03197,-0.048 0,-0.016 0.01599,-0.016 0.01599,0 0.01599,-0.016 0,-0.016 0,-0.032 0.01599,-0.016 0.03197,-0.032 0.03197,-0.0959 0.04796,-0.15987 l -0.01599,-0.032 q 0.01599,-0.032 0.03197,-0.064 0.01599,-0.048 0.01599,-0.0799 0,-0.016 0,-0.048 0.01599,-0.048 0.01599,-0.0639 0.01599,-0.032 0.03197,-0.064 0.03197,-0.048 0.03197,-0.0639 0.03197,-0.0799 0.06395,-0.17586 0.04796,-0.0959 0.06395,-0.14388 0.01599,-0.032 0.04796,-0.0799 0.03197,-0.048 0.03197,-0.0799 0.03197,-0.0799 0.06395,-0.2398 0.03197,-0.15986 0.04796,-0.17585 0,-0.032 0.03197,-0.19184 0.04796,-0.15987 0.06395,-0.2398 0.03197,-0.0959 0.07993,-0.2398 0.06395,-0.15987 0.07993,-0.22381 0.01599,-0.016 0.01599,-0.048 0,-0.032 0,-0.048 0.01599,-0.032 0.03197,-0.048 l 0.01599,-0.032 q 0.01599,-0.032 0.01599,-0.0639 0.01599,-0.032 0.01599,-0.0639 v -0.016 q 0.01599,-0.016 0.01599,-0.016 0.01599,-0.016 0.03197,-0.032 0.04796,-0.14388 0.07993,-0.22381 h -0.01599 v -0.016 l 0.03197,-0.048 q 0.06395,-0.12789 0.271773,-0.75137 0,-0.032 0.03197,-0.11191 0.04796,-0.0959 0.04796,-0.11191 v -0.032 q 0,-0.016 0.01599,-0.032 0.01599,-0.016 0.03197,-0.032 0.06395,-0.17585 0.207827,-0.41565 0.01599,-0.016 0.04796,-0.0959 0.03197,-0.0959 0.04796,-0.1279 0.03197,-0.032 0.07993,-0.0959 -0.03197,-0.14388 0.01599,-0.17585 l -0.01599,-0.032 v -0.016 h 0.01599 q 0.01599,0 0.01599,0 0,-0.016 0,-0.032 l -0.01599,-0.016 0.01599,-0.016 q 0.03197,-0.016 0.03197,-0.032 0.01599,-0.016 0.01599,-0.032 0.01599,-0.032 0.06395,-0.048 0,-0.016 0.01599,-0.032 0.04796,-0.032 0.19184,-0.0959 0.159867,-0.0799 0.19184,-0.0639 l 0.09592,-0.016 q 0.09592,0 0.127894,0.016 0.01599,0 0.03197,-0.016 l 0.03197,-0.016 q 0.01599,0 0.03197,0.016 0.03197,0.016 0.04796,0.016 0.04796,0 0.175854,0 0.127894,0 0.19184,0.016 0.07993,0 0.111907,0.048 0.06395,0.0959 0.207827,0.43164 0.03197,0.0959 0.06395,0.30375 0.04796,0.20783 0.07993,0.28776 0,0.0639 0.04796,0.15987 0.04796,0.0799 0.06395,0.12789 0.03197,0.0959 0.111907,0.3677 0.07993,0.27177 0.111907,0.36769 0.01599,0.016 0.01599,0.048 0,0.032 0.01599,0.032 0,0.032 0.03197,0.048 l 0.01599,0.032 q 0.07993,0.20782 0.207827,0.65545 0.14388,0.44763 0.159867,0.46362 0.03197,0.1119 0.04796,0.20782 0.01599,0.0959 0.01599,0.20783 0.01599,0.11191 0.01599,0.17585 0,0.016 0.06395,0.064 0.06395,0.032 0.06395,0.048 0.06395,0.0799 0.09592,0.22381 0.01599,0.048 -0.01599,0.0799 -0.01599,0.032 -0.01599,0.0799 l 0.04796,0.016 q 0,0.048 0.03197,0.14388 0.03197,0.0799 0.04796,0.14388 0,0.048 0,0.0639 0,0.016 -0.01599,0.032 l -0.06395,0.016 q 0.06395,0.016 0.07993,0.048 0.03197,0.016 0.03197,0.048 0.01599,0.016 0.01599,0.0639 v 0.048 q 0.01599,0.25579 0.127894,0.49559 0.01599,0 0.01599,0.032 0,0.032 0,0.048 0.01599,0.016 0.03197,0.032 0.01599,0.016 0.03197,0.032 0,0.016 0,0.0639 0,0.048 0,0.0639 0.01599,0.0959 0.06395,0.17586 v -0.016 l 0.01599,0.016 q 0,0.016 0,0.032 0.01599,0 0.03197,0.032 0.01599,0.016 0.03197,0.032 0.01599,0.016 0.06395,0.032 l 0.04796,0.016 q 0.06395,0.0639 0.06395,0.17585 0,0.016 0.03197,0.048 0.03197,0.016 0.04796,0.016 0.01599,0.032 0.09592,0.0639 0.01599,0 0.03197,0 l 0.01599,0.016 q 0.04796,0.016 0.111907,0 0,-0.016 0.01599,-0.016 0.01599,0 0.01599,0 0.01599,-0.016 0.01599,-0.032 0.01599,-0.016 0.03197,-0.016 0.04796,-0.016 0.159867,0.032 0.06395,0.032 0.07993,0.048 0.01599,0.016 0.01599,0.032 0.01599,0 0.01599,0.0959 l 0.01599,0.032 0.01599,0.016 v 0.1279 q -0.01599,0.12789 -0.03197,0.20782 z" />
    <path
       inkscape:connector-curvature="0"
       id="path52"
       style="font-style:normal;font-variant:normal;font-weight:normal;font-stretch:normal;font-size:15.98669529px;line-height:1.25;font-family:BlackPearl;-inkscape-font-specification:BlackPearl;letter-spacing:0px;word-spacing:0px;fill:#ffffff;fill-opacity:1;stroke:none;stroke-width:0.53288984;stroke-miterlimit:4;stroke-dasharray:none;stroke-opacity:1"
       d="m 72.92008,284.30169 q -0.03197,0.016 -0.14388,-0.016 -0.09592,-0.032 -0.111907,-0.032 v -0.016 q -0.01599,-0.016 -0.03197,-0.016 0,-0.016 0,0 l -0.01599,0.016 -0.01599,-0.032 q 0,-0.016 -0.01599,-0.016 l -0.01599,0.016 v -0.016 q -0.01599,-0.016 -0.03197,-0.016 -0.111907,-0.064 -0.415654,-0.27177 -0.287761,-0.22382 -0.447628,-0.30375 l -0.03197,0.016 q -0.01599,-0.016 -0.06395,-0.016 -0.03197,-0.016 -0.04796,-0.032 -0.03197,0 -0.06395,0 -0.03197,0 -0.04796,0 -0.01599,0 -0.06395,-0.016 -0.03197,-0.016 -0.06395,-0.016 -0.111906,-0.016 -0.303747,-0.032 -0.01599,0 -0.06395,0 -0.04796,0 -0.07993,0 0.01599,0.048 0.03197,0.33572 0,0.0959 -0.03197,0.28776 -0.01599,0.17585 -0.01599,0.25579 0,0.048 0,0.14388 0.01599,0.0799 0.01599,0.1119 0.01599,0.0799 0,0.3677 0,0.27177 0.03197,0.30374 l -0.01599,0.0639 0.03197,0.0799 q 0.03197,0.17586 0.04796,0.55954 0.01599,0.36769 0.01599,0.43164 0,0.0799 -0.175854,0.15987 -0.159867,0.0639 -0.319734,0.14388 -0.159867,0.0799 -0.14388,0.17585 0.01599,0.0799 0.175854,0.11191 0.175853,0.032 0.33572,0.032 h 0.159867 q 0.04796,0.0799 0.03197,0.20783 0,0.048 -0.03197,0.0799 -0.03197,0.016 -0.03197,0.048 l 0.03197,0.032 q 0,0.032 0,0.1279 0.01599,0.0799 0.01599,0.12789 l -0.04796,0.0799 h -0.06395 q 0.06395,0.032 0.07993,0.0639 0.03197,0.032 0.01599,0.048 0,0.016 -0.01599,0.064 0,0.032 0,0.048 -0.04796,0.2398 0.01599,0.4796 v 0.0799 l 0.03197,0.0799 -0.03197,0.1119 q 0,0.048 0,0.0799 0.01599,0.016 0.03197,0.0639 0.01599,0.032 0.03197,0.048 0,0.016 0.01599,0.032 h 0.01599 q 0.01599,0.016 0.04796,0.048 l 0.01599,0.032 h 0.01599 v 0 h 0.01599 q 0.01599,0.016 0.04796,0.048 0,0.016 0,0.016 0.01599,0 0,0.048 l 0.03197,-0.016 h 0.01599 l -0.01599,0.016 h 0.01599 v 0.016 0.016 0.016 q 0.01599,-0.016 0.01599,0 v 0.016 q -0.01599,0.032 0.03197,0.048 v 0.016 q 0,0 0.01599,-0.016 0,0.016 0,0.016 v 0.016 q 0.01599,0.016 0.04796,0.016 0,0.016 0,0.016 0.01599,0 0.01599,0 0.01599,0 0.03197,-0.016 h 0.01599 q 0.03197,0 0.03197,0.048 0.03197,0 0.159867,0.032 0.07993,0.048 0.09592,0.048 0.01599,0.016 0.03197,0.032 v 0.0959 l 0.03197,0.032 0.01599,0.032 -0.01599,0.35171 q -0.01599,0.016 -0.04796,0.0639 l -0.03197,0.032 h -0.01599 q -0.01599,0 -0.01599,0.016 0.01599,0 0,0 0,0 -0.01599,0 v 0 0.016 q 0,0 -0.01599,0 -0.127893,0.0639 -0.591507,0.0799 v 0.016 q -0.01599,0 -0.04796,0 -0.01599,0 -0.03197,0 -0.01599,0 -0.03197,0 -0.01599,0 -0.03197,0 -0.01599,0 -0.04796,-0.016 -0.01599,0 -0.03197,0 -0.03197,0 -0.09592,-0.016 -0.04796,0 -0.07993,0 -0.01599,0 -0.04796,-0.016 -0.01599,0 -0.03197,0 -0.04796,0 -0.14388,0 -0.07993,0.016 -0.09592,0.016 -0.01599,0 -0.09592,0 -0.07993,0.016 -0.127893,0.016 -0.04796,0 -0.143881,-0.016 -0.07993,0 -0.111906,0 -0.01599,0 -0.03197,0 -0.01599,0.016 -0.03197,0.016 0,0 -0.01599,-0.016 -0.01599,0 -0.03197,0 -0.03197,0 -0.06395,0.016 h -0.01599 l -0.01599,-0.016 v 0 q -0.07993,0 -0.127893,-0.016 v 0.016 l -0.03197,-0.016 q -0.09592,-0.016 -0.399668,0 -0.01599,0 -0.06395,0 h -0.04796 l -0.01599,0.016 q -0.01599,0 -0.01599,0 l -0.01599,-0.016 q -0.07993,0 -0.223814,-0.032 -0.01599,0 -0.06395,-0.016 -0.03197,0 -0.04796,0 -0.01599,-0.016 -0.04796,-0.016 -0.03197,0 -0.06395,0 -0.01599,-0.016 -0.03197,-0.032 h -0.01599 v -0.016 h -0.01599 l -0.01599,-0.016 v -0.016 q -0.03197,-0.032 -0.03197,-0.032 0,-0.016 0,-0.016 h -0.01599 q -0.04796,-0.15987 -0.01599,-0.19184 0.01599,0 0.01599,-0.032 0,-0.048 0.01599,-0.0639 v -0.016 -0.016 -0.016 q 0.01599,0 0.03197,0 0.07993,-0.20783 0.09592,-0.20783 0.04796,-0.016 0.207827,-0.032 h 0.01599 q 0,-0.016 0,-0.032 l 0.01599,-0.016 h -0.01599 v -0.016 q 0.01599,-0.032 0.07993,-0.19184 0.01599,0 0.07993,-0.064 l -0.01599,-0.032 0.01599,-0.016 q 0,-0.016 0,-0.016 0,-0.016 0.01599,-0.016 h 0.01599 v -0.016 -0.016 q 0.01599,-0.016 0.03197,-0.016 0.01599,-0.016 0.01599,0 h 0.01599 0.01599 q -0.03197,-0.016 0,-0.032 0.04796,-0.032 0.06395,-0.0799 0.01599,0 0.01599,0 0,-0.016 -0.01599,-0.016 0,0 0.01599,-0.016 h 0.01599 q 0.01599,-0.016 0.03197,-0.048 v -0.016 l -0.01599,-0.016 v -0.016 q 0,-0.032 0.04796,-0.048 0,-0.0799 -0.01599,-0.12789 l -0.03197,-0.032 q 0,-0.032 0,-0.0799 0,-0.048 0,-0.064 l -0.03197,-0.12789 q -0.01599,-0.032 0,-0.0799 0.01599,-0.048 0.01599,-0.0799 0.01599,-0.0639 0.01599,-0.17585 0.01599,-0.11191 0.01599,-0.17585 0.01599,-0.016 0.01599,-0.0799 0.01599,-0.0639 0.01599,-0.0959 0,-0.0799 -0.03197,-0.25579 -0.03197,-0.17585 -0.03197,-0.19184 0,-0.032 -0.03197,-0.20782 -0.03197,-0.17586 -0.03197,-0.25579 -0.01599,-0.0959 -0.01599,-0.27177 0.01599,-0.17586 0.01599,-0.2398 l -0.03197,-0.0959 0.03197,-0.11191 -0.03197,-0.14388 0.04796,-0.048 q 0,-0.15987 0,-0.25579 h -0.03197 l 0.03197,-0.0799 q 0.03197,-0.15987 -0.01599,-0.78335 v -0.25579 l -0.03197,-0.016 0.04796,-0.0799 q 0,-0.17585 0.07993,-0.44763 0,-0.016 0,-0.048 l -0.03197,0.016 q -0.01599,0 -0.03197,0 -0.01599,-0.016 -0.03197,-0.016 -0.09592,0.016 -0.255787,0.016 v 0.016 h -0.07993 q -0.111907,-0.016 -0.431641,-0.016 -0.319734,-0.016 -0.447627,-0.032 -0.06395,0 -0.175854,-0.016 -0.09592,-0.032 -0.127894,-0.032 h -0.03197 q -0.03197,0 -0.06395,-0.016 l -0.01599,-0.016 q -0.415654,-0.14388 -0.623481,-0.27177 -0.19184,-0.12789 -0.271774,-0.27177 -0.207827,-0.33572 -0.175853,-0.41566 v -0.032 q -0.01599,-0.016 -0.01599,-0.032 h 0.01599 q 0.01599,-0.016 0,-0.032 l -0.01599,-0.032 0.01599,-0.032 0.03197,-0.016 q 0.01599,-0.032 0.01599,-0.048 0,-0.032 0.04796,-0.064 0.01599,0 0.01599,-0.016 v -0.016 q 0.04796,-0.032 0.207827,-0.0799 0.159867,-0.0639 0.19184,-0.048 h 0.09592 q 0.07993,0 0.127894,0.016 l 0.03197,-0.016 q 0.01599,0 0.01599,0 0.01599,0 0.03197,0.016 0.03197,0 0.04796,0 0.04796,0 0.159867,0 0.111907,-0.016 0.159867,-0.016 0.06395,-0.016 0.09592,0.016 0.03197,0.032 0.03197,0.22382 0,0.20782 0.223814,0.36769 0.06395,0.048 0.207827,0.0959 0.319734,0.12789 0.559534,0.12789 0.01599,0 0.03197,0.016 0.01599,0 0.03197,0 0.01599,0 0.03197,-0.016 h 0.03197 q 0.623481,-0.048 0.943215,-0.1119 0.04796,0 0.495587,-0.048 0.01599,0 0.04796,0 0.03197,-0.016 0.04796,-0.032 l 0.03197,-0.016 q 0.09592,-0.032 0.2398,-0.048 0.03197,0 0.04796,0.016 0.03197,0 0.07993,0 l 0.01599,-0.016 q 0.03197,0 0.127894,0 0.09592,-0.016 0.159867,-0.016 h 0.07993 v 0.032 q 0.06395,-0.048 0.239801,-0.032 0.255787,0.016 0.559534,0.032 0.01599,0 0.04796,0 0.04796,0 0.06395,0 0.01599,0.016 0.03197,0.016 0.03197,-0.016 0.06395,-0.016 0.03197,0.016 0.07993,0.032 0.04796,0.016 0.06395,0.016 0.127894,0.032 0.303748,0.048 0.03197,0.016 0.06395,0.032 0.04796,0 0.06395,0 0.04796,0 0.09592,0 0.04796,-0.016 0.06395,-0.016 0.255787,0.0639 0.527561,0.31973 0.19184,0.19184 0.207827,0.27178 0.03197,0.0639 0.04796,0.1119 0.01599,0.016 -0.111907,0.1279 0,0.016 0,0.0959 0.01599,0.0799 0.01599,0.0959 -0.03197,0.016 -0.2398,0.14388 -0.191841,0.12789 -0.351708,0.17585 z" />
    <path
       inkscape:connector-curvature="0"
       id="path54"
       style="font-style:normal;font-variant:normal;font-weight:normal;font-stretch:normal;font-size:15.98669529px;line-height:1.25;font-family:BlackPearl;-inkscape-font-specification:BlackPearl;letter-spacing:0px;word-spacing:0px;fill:#ffffff;fill-opacity:1;stroke:none;stroke-width:0.53288984;stroke-miterlimit:4;stroke-dasharray:none;stroke-opacity:1"
       d="m 80.686367,282.81493 q 0.159867,-0.0799 0.19184,-0.0799 0.03197,0 0.159867,0.20782 0.111907,0.20783 0.223814,0.30375 0.111907,0.0799 0.04796,0.19184 -0.04796,0.0959 0,0.15987 0.06395,0.048 0.06395,0.14388 0,0.0799 0.127894,0.2398 0.159866,0.19184 0.33572,0.89525 0.09592,0.41566 -0.2398,0.46362 -0.175854,0.016 -0.239801,-0.016 -0.06395,-0.032 -0.19184,-0.22381 -0.14388,-0.22382 -0.591508,-0.65546 -0.38368,-0.38368 -0.591508,-0.4796 -0.207827,-0.1119 -0.703414,-0.19184 -0.719401,-0.11191 -1.007162,0.032 -0.04796,0.032 -0.03197,0.048 0.01599,0.0799 -0.07993,0.0959 l -0.127893,0.032 0.01599,1.05512 q 0,1.07111 0.04796,1.199 0.03197,0.11191 0.127894,0.1279 0.09592,0.016 0.767361,0.016 0.511575,0 0.783348,-0.1119 0.287761,-0.1279 0.287761,-0.35171 0,-0.0959 0.07993,-0.20783 0.09592,-0.12789 0.175854,-0.12789 0.04796,0 0.255787,0.0799 0.127894,0.048 0.159867,0.0959 0.03197,0.048 0.03197,0.19184 0,0.20783 0.06395,0.55954 0.07993,0.33572 0.09592,0.81532 l 0.01599,0.46361 -0.14388,0.048 q -0.14388,0.064 -0.303747,0.032 -0.159867,-0.048 -0.207827,-0.15987 -0.06395,-0.12789 -0.367694,-0.33572 -0.303748,-0.22382 -0.511575,-0.27178 -0.255787,-0.0799 -0.799334,-0.0799 h -0.543548 l 0.03197,0.19184 q 0.04796,0.27177 0.03197,1.75854 0,0.1119 0.07993,0.25578 0.07993,0.11191 0.111907,0.22382 0.03197,0.0799 0.207827,0.12789 0.175854,0.032 0.943215,0.0959 1.151042,0.0959 1.870444,-0.048 0.319733,-0.0639 0.447627,-0.016 0.127894,0.032 0.159867,0.19184 0.04796,0.25578 -0.223814,0.38368 -0.271774,0.12789 -1.055122,0.20782 -0.847294,0.0959 -2.829645,-0.14388 -0.559534,-0.0639 -1.726563,-0.032 -1.119068,0.016 -1.183015,-0.0639 -0.111907,-0.12789 0.04796,-0.31973 0.159867,-0.19184 0.415654,-0.2398 0.159867,-0.016 0.207827,-0.048 0.06395,-0.048 0.127894,-0.19184 0.111906,-0.20783 0.223813,-0.30375 0.07993,-0.0799 0.07993,-0.12789 0.01599,-0.064 -0.01599,-0.27178 -0.06395,-0.28776 -0.03197,-0.75137 0.03197,-0.43164 -0.01599,-0.75138 -0.04796,-0.25578 -0.04796,-0.89525 -0.01599,-0.41565 0,-0.52756 0.03197,-0.1279 0.14388,-0.30375 0.159867,-0.25579 0.159867,-0.28776 0,-0.032 -0.175854,-0.27177 -0.127893,-0.19184 -0.14388,-0.25579 -0.01599,-0.0639 0.03197,-0.2398 0.04796,-0.2398 -0.03197,-0.39967 -0.07993,-0.17585 -0.19184,-0.22381 -0.09592,-0.048 -0.431641,-0.0799 -0.303747,-0.016 -0.415654,-0.0799 -0.111907,-0.0639 -0.07993,-0.20783 0.04796,-0.1119 0.175853,-0.2398 l 0.14388,-0.1119 h 2.605832 q 2.589844,0 2.717738,-0.0639 0.03197,-0.016 0.127894,-0.0799 0.111906,-0.0639 0.127893,-0.0639 z" />
    <path
       inkscape:connector-curvature="0"
       id="path56"
       style="font-style:normal;font-variant:normal;font-weight:normal;font-stretch:normal;font-size:15.98669529px;line-height:1.25;font-family:BlackPearl;-inkscape-font-specification:BlackPearl;letter-spacing:0px;word-spacing:0px;fill:#ffffff;fill-opacity:1;stroke:none;stroke-width:0.53288984;stroke-miterlimit:4;stroke-dasharray:none;stroke-opacity:1"
       d="m 83.525005,289.51336 q 0.06395,-0.11191 0.175854,-0.17586 0.127893,-0.0639 0.28776,-0.11191 0.159867,-0.0639 0.207827,-0.0799 l 0.159867,-0.032 q 0.01599,-0.016 0.04796,-0.016 l -0.01599,-0.016 q 0.01599,0 0.04796,-0.016 0.06395,-0.032 0.09592,-0.048 v -0.016 h 0.01599 q 0.01599,-0.016 0.01599,-0.016 0.01599,0 0.01599,-0.016 0.01599,-0.016 0.01599,-0.016 0.01599,0 0.03197,0 h 0.01599 q 0.03197,-0.016 0.06395,-0.032 l 0.03197,-0.016 q 0.01599,0 0.03197,0 0.01599,0 0.01599,-0.016 0.03197,-0.016 0.07993,-0.0959 0.01599,-0.016 0.01599,-0.048 0.01599,-0.048 0.01599,-0.0639 0.01599,-0.016 0.03197,-0.032 -0.01599,-0.0799 -0.04796,-0.91124 l -0.06395,-0.032 q 0,-0.032 0,-0.0799 0.01599,-0.064 0.01599,-0.0959 -0.01599,-0.032 -0.04796,-0.0799 -0.01599,-0.048 -0.01599,-0.0799 0.01599,-0.032 0.03197,-0.0959 0.03197,-0.0639 0.04796,-0.0799 0.01599,-0.0959 0.03197,-0.22381 0.03197,-0.14388 0.04796,-0.20783 0.01599,-0.032 0.03197,-0.0959 0.03197,-0.0799 0.04796,-0.12789 0,-0.0959 -0.04796,-0.30375 -0.04796,-0.22381 -0.04796,-0.2398 0,-0.048 -0.04796,-0.2398 -0.03197,-0.20783 -0.04796,-0.31973 0,-0.11191 0.01599,-0.31974 0.01599,-0.20782 0.01599,-0.30374 0,-0.016 -0.03197,-0.048 -0.01599,-0.048 -0.01599,-0.0639 0,-0.032 0.03197,-0.064 0.03197,-0.048 0.03197,-0.0639 0,-0.048 -0.01599,-0.0799 0,-0.048 -0.01599,-0.0639 -0.01599,-0.032 -0.01599,-0.048 0,-0.016 0.03197,-0.032 l 0.03197,-0.016 q 0.01599,-0.19184 0.01599,-0.30375 l -0.03197,-0.016 h -0.03197 q -0.03197,-0.016 0.06395,-0.0799 0.03197,-0.11191 0.03197,-0.25579 0.01599,-0.15987 0,-0.25579 0,-0.1119 -0.01599,-0.27177 -0.01599,-0.15987 -0.01599,-0.19184 0,-0.048 0.01599,-0.15987 0.01599,-0.12789 0,-0.15986 l -0.06395,-0.032 q 0,-0.016 0.03197,-0.032 0.03197,-0.032 0.03197,-0.048 0.03197,-0.22381 0.14388,-0.57552 0.01599,-0.032 0.03197,-0.14388 0.03197,-0.11191 0.04796,-0.15987 0.03197,-0.048 0.04796,-0.14388 0.03197,-0.0959 0.06395,-0.15987 0.03197,-0.0639 0.09592,-0.0799 0,-0.016 -0.01599,-0.032 0,-0.032 0,-0.032 0.01599,0 0.04796,0 h 0.01599 q 0.01599,0 0,-0.032 0,-0.032 0,-0.032 0.01599,0 0.06395,0 0.06395,-0.016 0.06395,-0.032 0.04796,-0.016 0.06395,-0.048 0.03197,-0.032 0.127893,-0.032 0.03197,-0.016 0.03197,-0.016 0.01599,-0.016 0.03197,-0.016 0.09592,-0.016 0.383681,-0.032 0.303747,-0.016 0.399667,0 0,0.016 0.175854,0.048 0.175853,0.016 0.2398,0.064 h 0.06395 q 0.04796,-0.016 0.04796,0 0.01599,0 0.06395,0.032 0.04796,0.016 0.06395,0.016 0.09592,0.032 0.303747,0.0799 0.223814,0.048 0.351707,0.0959 0.14388,0.048 0.175854,0.11191 0.04796,0.12789 0.07993,0.59151 0.01599,0.12789 -0.03197,0.36769 -0.04796,0.2398 -0.06395,0.33572 0,0.064 0.01599,0.17586 0.03197,0.1119 0.03197,0.15986 0,0.11191 -0.01599,0.46362 0,0.35171 0.03197,0.38368 0,0.016 0,0.048 0,0.016 0,0.032 0,0.032 0.01599,0.0639 0.03197,0.016 0.03197,0.032 0.04796,0.22382 0.04796,0.7194 0,0.4796 0,0.51158 0.01599,0.1119 -0.01599,0.22381 -0.01599,0.0959 -0.06395,0.22382 -0.04796,0.1119 -0.06395,0.17585 l 0.03197,0.016 q 0.03197,0.032 0.06395,0.0639 0.04796,0.032 0.07993,0.0639 0.06395,0.11191 0.03197,0.28776 0,0.048 -0.06395,0.0799 -0.06395,0.016 -0.06395,0.064 l 0.06395,0.032 q 0,0.048 0,0.15987 0,0.0959 -0.01599,0.17585 -0.03197,0.0959 -0.06395,0.0959 h -0.06395 -0.06395 q 0.111907,0.032 0.14388,0.0799 0.03197,0.032 0.03197,0.0639 0,0.032 -0.03197,0.0799 -0.03197,0.032 -0.03197,0.048 -0.09592,0.30374 -0.03197,0.60749 0,0.032 -0.01599,0.0799 0,0.032 0.01599,0.048 0,0.016 0.01599,0.048 0.03197,0.016 0.03197,0.048 0,0.016 -0.03197,0.0799 -0.03197,0.048 -0.03197,0.0639 -0.03197,0.15986 0.04796,0.30374 0,0.016 0.01599,0.0639 0.01599,0.032 0.03197,0.064 0.03197,0.032 0.09592,0.0799 0.07993,0.032 0.07993,0.048 0.03197,0.048 0.03197,0.11191 1.135055,0 1.678603,-0.016 l 0.07993,-0.032 q 0.03197,-0.016 0.07993,-0.032 0.127894,-0.0959 0.14388,-0.1119 l 0.03197,-0.016 q 0.03197,-0.016 0.04796,-0.016 h -0.01599 v -0.016 q 0.01599,-0.016 0.04796,-0.016 0.03197,-0.016 0.03197,-0.032 0.01599,0 0,-0.016 0,-0.016 0.03197,-0.016 0.04796,-0.016 0.04796,-0.032 0.959202,-1.02315 1.278936,-1.58268 l -0.01599,-0.048 q 0.01599,-0.048 0.04796,-0.11191 0.04796,-0.0639 0.06395,-0.0959 0,-0.048 0,-0.11191 0.01599,-0.0639 0.03197,-0.0959 0.01599,-0.032 0.04796,-0.0959 0.04796,-0.0639 0.06395,-0.0959 0.04796,-0.0799 0.19184,-0.49558 0.01599,-0.032 0.04796,-0.11191 0.04796,-0.0799 0.06395,-0.1279 0.03197,-0.15986 0.01599,-0.68742 -0.01599,-0.1279 -0.04796,-0.35171 -0.03197,-0.22381 -0.03197,-0.31973 0,-0.0799 -0.01599,-0.31974 0,-0.2398 -0.01599,-0.36769 -0.01599,-0.048 -0.04796,-0.0799 -0.03197,-0.032 -0.03197,-0.048 0,-0.048 0.01599,-0.0959 l 0.01599,-0.048 q 0,-0.048 -0.01599,-0.0799 -0.01599,-0.048 -0.03197,-0.0799 l -0.03197,-0.032 q 0,-0.016 0.01599,-0.032 0.03197,-0.032 0.03197,-0.048 -0.03197,-0.17585 -0.07993,-0.31973 h -0.01599 l -0.03197,0.016 q -0.04796,-0.016 0.03197,-0.1119 -0.04796,-0.3677 -0.399667,-0.97519 -0.01599,-0.032 -0.04796,-0.0959 -0.03197,-0.0799 -0.06395,-0.1279 -0.03197,-0.0639 -0.04796,-0.0799 h -0.04796 q -0.01599,-0.016 -0.01599,-0.064 l -0.01599,-0.048 q -0.335721,-0.4796 -0.447628,-0.60749 -0.01599,0 -0.33572,-0.27177 -0.07993,-0.048 -0.287761,-0.15987 -0.207827,-0.11191 -0.2398,-0.15987 0,-0.016 -0.04796,-0.032 h -0.04796 q -0.815321,-0.0799 -1.694589,0.0799 -0.127894,0.032 -0.367694,0.0799 -0.223814,0.032 -0.399668,0.0639 -0.175853,0.032 -0.255787,0.048 l -0.111907,0.048 q -0.09592,0 -0.207827,0.016 -0.09592,0 -0.111907,0 -1.183015,0.12789 -2.094257,0.0799 -0.735388,-0.048 -1.183015,-0.20782 -0.415654,-0.14389 -0.943215,-0.44763 -0.527561,-0.30375 -0.591508,-0.4796 -0.01599,-0.016 -0.09592,-0.0959 -0.07993,-0.0959 -0.07993,-0.11191 l 0.01599,-0.016 0.01599,-0.016 q 0,-0.016 -0.06395,-0.11191 -0.06395,-0.0959 -0.07993,-0.11191 0,-0.032 0.01599,-0.0799 0.03197,-0.0639 0.03197,-0.0799 -0.01599,-0.0799 -0.03197,-0.14388 0,-0.0799 -0.01599,-0.11191 0,-0.032 0,-0.064 0.01599,-0.032 0.04796,-0.0799 0.01599,-0.016 0.01599,-0.0639 0,-0.048 0,-0.064 0.04796,-0.0639 0.319734,-0.17585 0.287761,-0.12789 0.335721,-0.0799 0.04796,0.032 0.06395,0.048 0.01599,0 0.03197,0 0.03197,0 0.09592,0 0.175854,0.032 0.255787,0.1119 0,0.016 0.03197,0 0.04796,-0.032 0.06395,-0.032 0.01599,0.016 0.06395,0.0639 0.06395,0.048 0.07993,0.0639 0.111907,0.032 0.271774,0.064 0.175853,0.032 0.271773,0.0639 0.09592,0.032 0.127894,0.0959 0.383681,0.68743 1.183015,0.84729 0.799335,0.15987 2.190178,-0.0639 0.19184,-0.032 0.559534,-0.11191 0.367694,-0.0799 0.559534,-0.11191 1.390843,-0.22381 2.893592,-0.19184 0.03197,0 0.351708,0.032 0.04796,0.016 0.175853,0.016 0.14388,0 0.191841,0.032 1.135055,0.46361 2.17419,1.74255 1.055122,1.26294 1.310909,2.28609 0.127894,0.4796 0.111907,1.00716 0,0.51158 -0.06395,0.79934 -0.04796,0.27177 -0.175853,0.79933 -0.03197,0.0639 -0.04796,0.2398 -0.01599,0.15987 -0.03197,0.30375 0,0.1279 0,0.14388 -0.127893,0.55954 -0.367694,1.03914 -0.09592,0.17585 -0.19184,0.2398 -0.07993,0.0639 -0.175854,0.2398 l -0.03197,0.12789 q -0.447628,0.59151 -0.911242,0.97519 -0.04796,0.048 -0.127893,0.0959 -0.07993,0.032 -0.143881,0.064 l -0.06395,0.032 q 0.03197,-0.048 0.04796,-0.0959 0,-0.0799 -0.07993,0.048 -0.223814,0.28776 -0.943215,0.55953 -1.310909,0.47961 -2.302084,0.65546 -0.09592,0.016 -0.255787,0.032 -0.14388,0.016 -0.175854,0.016 -0.04796,0 -0.14388,0.016 -0.09592,0.016 -0.19184,0.032 -0.07993,0 -0.543548,-0.016 -0.575521,-0.016 -1.119069,-0.016 -0.07993,0 -0.223813,0 -0.127894,-0.016 -0.223814,0 -0.111907,0 -0.255787,0.016 -0.143881,0.016 -0.191841,0.016 -0.38368,0.016 -0.975188,-0.016 -0.591508,-0.032 -0.719401,-0.032 -0.175854,0.016 -0.335721,0.048 -0.14388,0.016 -0.271774,0.032 -0.111907,0.032 -0.159867,0.048 -0.111907,0.016 -0.223813,0.0639 -0.07993,0.032 -0.111907,-0.0799 -0.01599,-0.032 -0.01599,-0.048 l -0.159867,0.048 -0.159867,0.048 q 0,-0.0799 -0.03197,-0.25579 -0.03197,-0.17585 -0.03197,-0.27177 0,-0.11191 0.06395,-0.19184 z" />
    <path
       inkscape:connector-curvature="0"
       id="path58"
       style="font-style:normal;font-variant:normal;font-weight:normal;font-stretch:normal;font-size:15.98669529px;line-height:1.25;font-family:BlackPearl;-inkscape-font-specification:BlackPearl;letter-spacing:0px;word-spacing:0px;fill:#ffffff;fill-opacity:1;stroke:none;stroke-width:0.53288984;stroke-miterlimit:4;stroke-dasharray:none;stroke-opacity:1"
       d="m 103.47989,282.81493 q 0.15987,-0.0799 0.19184,-0.0799 0.032,0 0.15987,0.20782 0.11191,0.20783 0.22381,0.30375 0.11191,0.0799 0.048,0.19184 -0.048,0.0959 0,0.15987 0.064,0.048 0.064,0.14388 0,0.0799 0.12789,0.2398 0.15987,0.19184 0.33572,0.89525 0.0959,0.41566 -0.2398,0.46362 -0.17585,0.016 -0.2398,-0.016 -0.0639,-0.032 -0.19184,-0.22381 -0.14388,-0.22382 -0.5915,-0.65546 -0.38368,-0.38368 -0.59151,-0.4796 -0.20783,-0.1119 -0.70342,-0.19184 -0.7194,-0.11191 -1.00716,0.032 -0.048,0.032 -0.032,0.048 0.016,0.0799 -0.0799,0.0959 l -0.12789,0.032 0.016,1.05512 q 0,1.07111 0.048,1.199 0.032,0.11191 0.12789,0.1279 0.0959,0.016 0.76736,0.016 0.51158,0 0.78335,-0.1119 0.28776,-0.1279 0.28776,-0.35171 0,-0.0959 0.0799,-0.20783 0.0959,-0.12789 0.17585,-0.12789 0.048,0 0.25579,0.0799 0.12789,0.048 0.15986,0.0959 0.032,0.048 0.032,0.19184 0,0.20783 0.0639,0.55954 0.0799,0.33572 0.0959,0.81532 l 0.016,0.46361 -0.14388,0.048 q -0.14388,0.064 -0.30375,0.032 -0.15986,-0.048 -0.20782,-0.15987 -0.064,-0.12789 -0.3677,-0.33572 -0.30375,-0.22382 -0.51157,-0.27178 -0.25579,-0.0799 -0.79934,-0.0799 h -0.54355 l 0.032,0.19184 q 0.048,0.27177 0.032,1.75854 0,0.1119 0.0799,0.25578 0.0799,0.11191 0.11191,0.22382 0.032,0.0799 0.20783,0.12789 0.17585,0.032 0.94321,0.0959 1.15105,0.0959 1.87045,-0.048 0.31973,-0.0639 0.44762,-0.016 0.1279,0.032 0.15987,0.19184 0.048,0.25578 -0.22381,0.38368 -0.27178,0.12789 -1.05512,0.20782 -0.8473,0.0959 -2.82965,-0.14388 -0.55953,-0.0639 -1.726562,-0.032 -1.119069,0.016 -1.183016,-0.0639 -0.111906,-0.12789 0.04796,-0.31973 0.159867,-0.19184 0.415654,-0.2398 0.159867,-0.016 0.207827,-0.048 0.06395,-0.048 0.127893,-0.19184 0.111907,-0.20783 0.223814,-0.30375 0.07993,-0.0799 0.07993,-0.12789 0.01599,-0.064 -0.01599,-0.27178 -0.06395,-0.28776 -0.03197,-0.75137 0.03197,-0.43164 -0.01599,-0.75138 -0.04796,-0.25578 -0.04796,-0.89525 -0.01599,-0.41565 0,-0.52756 0.03197,-0.1279 0.14388,-0.30375 0.159867,-0.25579 0.159867,-0.28776 0,-0.032 -0.175854,-0.27177 -0.127893,-0.19184 -0.14388,-0.25579 -0.01599,-0.0639 0.03197,-0.2398 0.04796,-0.2398 -0.03197,-0.39967 -0.07993,-0.17585 -0.19184,-0.22381 -0.09592,-0.048 -0.431641,-0.0799 -0.303747,-0.016 -0.415654,-0.0799 -0.111907,-0.0639 -0.07993,-0.20783 0.04796,-0.1119 0.175854,-0.2398 l 0.14388,-0.1119 h 2.605838 q 2.58984,0 2.71774,-0.0639 0.032,-0.016 0.12789,-0.0799 0.11191,-0.0639 0.12789,-0.0639 z" />
    <path
       inkscape:connector-curvature="0"
       id="path60"
       style="font-style:normal;font-variant:normal;font-weight:normal;font-stretch:normal;font-size:15.98669529px;line-height:1.25;font-family:BlackPearl;-inkscape-font-specification:BlackPearl;letter-spacing:0px;word-spacing:0px;fill:#ffffff;fill-opacity:1;stroke:none;stroke-width:0.53288984;stroke-miterlimit:4;stroke-dasharray:none;stroke-opacity:1"
       d="m 113.36742,283.74216 q 0.0639,0.35171 0.0799,0.63947 l 0.032,0.0639 q 0.032,0.064 0.032,0.0799 0.016,0 0,0 l -0.016,0.016 q 0,0.016 0.032,0.0799 0.048,0.048 0.0639,0.0639 0,0.016 0,0.064 0,0.032 0,0.048 0.032,0.0639 0.064,0.12789 0.032,0.048 0.048,0.0799 0.016,0.016 0.016,0.048 0,0.016 0.016,0.048 l 0.032,0.048 q 0,0.032 -0.016,0.1119 -0.016,0.0639 -0.0639,0.11191 -0.032,0.048 -0.064,0.048 -0.016,-0.016 -0.12789,-0.032 -0.12789,-0.016 -0.2398,-0.0959 -0.016,0 -0.016,0.016 0,0.016 -0.016,0.016 -0.016,0 -0.11191,-0.0639 -0.0799,-0.0639 -0.0959,-0.0639 -0.064,-0.048 -0.25579,-0.14388 -0.17585,-0.11191 -0.28776,-0.15987 -0.0959,-0.0639 -0.22381,-0.17585 -0.11191,-0.1279 -0.15987,-0.25579 -0.0799,-0.15987 -0.0959,-0.30375 h -0.016 -0.016 -0.016 q -0.12789,0 -0.15987,-0.0799 -0.14388,-0.032 -0.20782,-0.048 h -0.016 q -0.016,0 -0.048,0 -0.032,-0.016 -0.048,-0.016 -0.016,0 -0.048,0 -0.016,-0.016 -0.032,-0.016 -0.016,0 -0.048,-0.016 -0.016,-0.016 -0.032,-0.016 -0.032,0 -0.22381,-0.0639 l -0.032,-0.016 q -0.048,0 -0.064,-0.016 -0.048,0 -0.28776,-0.016 -0.048,0 -0.14388,0.016 -0.0799,0 -0.12789,-0.016 -0.032,0 -0.14389,0 -0.0959,0 -0.14388,0 -0.016,0 -0.032,0.016 -0.016,0 -0.032,0 -0.016,0 -0.032,-0.016 h -0.016 q -0.032,0 -0.0799,0.016 h -0.016 l -0.016,-0.016 q -0.0799,0 -0.14388,0.016 h -0.048 q -0.14388,0 -0.39967,0.064 -0.016,0.016 -0.048,0.016 -0.048,0.016 -0.0639,0.016 l -0.016,0.016 h -0.016 -0.016 q -0.048,0.016 -0.19184,0.048 h -0.016 q -0.048,0.12789 -0.0799,0.15987 -0.2398,0.28776 -0.2398,0.4796 0,0.14388 0.0799,0.19184 -0.048,0 -0.0799,0.016 -0.032,0.016 -0.032,0.048 0.048,0.27178 0.65546,0.49559 0.016,0.016 0.048,0.032 0.032,0.016 0.048,0.016 0.032,0.016 0.0639,0.032 0.032,0 0.048,0 0.22382,0.0799 0.7194,0.25579 0.51158,0.17586 0.63947,0.22382 0.1279,0.048 0.67144,0.30374 0.016,0.016 0.0639,0.032 0.048,0 0.0959,0 h 0.032 q 0.14388,0.032 0.31974,0.12789 0.0639,0.032 0.0799,0.0639 0.016,0.016 0.0639,0.048 h 0.048 l 0.12789,0.0799 q 0.14388,0.064 0.2398,0.12789 l 0.0799,0.0799 q 0,0.016 -0.016,0.032 0.12789,-0.016 0.30375,0.15987 0.12789,0.1119 0.60749,0.54355 0.032,0.016 0.0639,0.0639 0.032,0.032 0.048,0.048 0.016,0.016 0.048,0.048 0.032,0.016 0.048,0.048 0.032,0.032 0.0639,0.11191 0.032,0.0639 0.048,0.0799 0.0799,0.15987 0.23981,0.38368 0.016,0.032 0.048,0.0799 0.032,0.048 0.048,0.0799 0.032,0.032 0.0799,0.0799 0.0639,0.048 0.0799,0.064 0.14388,0.30375 0.1279,0.8473 0.0639,0.22381 -0.016,0.79933 l 0.016,0.016 q 0,0.016 -0.016,0.048 0,0.048 0,0.0639 0,0.016 0,0.048 0,0.032 0,0.048 -0.016,0.016 -0.032,0.048 -0.016,0.032 -0.032,0.048 -0.016,0.048 -0.048,0.11191 -0.032,0.0799 -0.0639,0.12789 0,0.016 -0.032,0.048 -0.032,0.048 -0.032,0.0639 -0.032,0.048 -0.064,0.15987 -0.016,0.1119 -0.032,0.15987 -0.0799,0.2398 -0.11191,0.30374 -0.032,0.048 -0.22381,0.28776 0,0.016 -0.016,0.032 0,0.032 -0.016,0.048 0,0.016 -0.032,0.016 -0.016,0.016 -0.032,0.016 -0.016,0.032 -0.048,0.0799 v 0.016 q 0,0.016 -0.016,0.016 -0.016,0 -0.032,0 -0.016,0.032 -0.1279,0.12789 h 0.016 v 0.016 l -0.048,0.016 q -0.0959,0.064 -0.25579,0.19184 -0.15986,0.1279 -0.20782,0.15987 -0.016,0.016 -0.0799,0.032 -0.0639,0.032 -0.0639,0.048 l -0.016,0.016 q -0.016,0.016 -0.032,0.016 h -0.016 q -0.14388,0.0639 -0.28776,0.0959 -0.31974,0.22381 -0.55954,0.28776 -0.51157,0.17585 -0.97518,0.25579 -0.0959,0.048 -0.1279,0.0639 -0.49559,0.1279 -1.02315,0.11191 -0.39966,-0.032 -0.52756,-0.0799 -0.0959,-0.016 -0.14388,-0.016 -0.30374,-0.032 -0.33572,-0.048 -0.27177,-0.0639 -0.55953,-0.15987 -0.63947,-0.25579 -1.03914,-0.4796 -0.14388,-0.0799 -0.38368,-0.2398 -0.0639,-0.048 -0.15986,-0.11191 -0.0959,-0.0639 -0.15987,-0.1119 -0.0639,-0.032 -0.0799,-0.0799 -0.33572,-0.60749 -0.31973,-1.18301 0.016,-0.57552 0.27177,-0.86328 0.38369,-0.46362 0.91125,-0.75138 0.048,-0.032 0.14388,-0.0799 0.0959,-0.048 0.22381,-0.11191 0.12789,-0.0799 0.14388,-0.016 0.032,0 0.048,-0.016 v -0.016 l 0.016,0.016 0.016,-0.016 0.016,0.016 v 0.016 h 0.016 0.016 q -0.016,-0.016 -0.016,-0.016 0,-0.016 0,-0.032 h 0.016 l 0.016,-0.016 v -0.016 h 0.016 q 0.016,0 0.1119,-0.064 0.016,0 0.032,-0.016 h 0.016 v -0.016 q 0.016,0 0.032,0 v 0 q 0.048,-0.016 0.14388,-0.016 h 0.032 q 0.032,-0.016 0.048,0 0.016,0 0.048,0 0.032,-0.016 0.048,-0.016 0.032,0 0.048,0.016 l 0.016,-0.016 v 0.016 q 0,0.016 0.016,0 0.016,0 0.016,0.016 l 0.016,0.016 0.048,0.032 q 0,0.016 0.016,0.016 0.12789,0.15986 0.0959,0.20782 l 0.016,0.064 q 0.016,0.048 0.016,0.0639 l 0.016,0.016 v 0.016 0.016 q -0.016,0.016 -0.016,0.032 0.016,0.032 0.016,0.0959 0.016,0.0639 0.016,0.0959 0.016,0.032 0,0.0639 -0.016,0.032 -0.1119,0.0959 -0.032,0.016 -0.0799,0.032 -0.048,0 -0.0639,0.016 -0.016,0 -0.032,0.016 0,0.016 -0.016,0.016 -0.016,0.016 -0.048,0.032 -0.032,0.016 -0.048,0.032 h -0.016 v 0.016 q -0.016,0.016 -0.17586,0.048 l -0.1119,-0.032 q 0.016,0.016 -0.016,0.064 -0.016,0.016 -0.048,0.016 l -0.016,-0.016 q 0,-0.016 -0.016,-0.016 v 0.016 h -0.016 q -0.016,0 -0.032,0 l -0.016,-0.016 v -0.016 q 0,0.048 -0.032,0.032 -0.048,-0.032 -0.0959,-0.016 l -0.016,0.016 v 0 q -0.016,0 -0.032,0 v -0.016 q -0.016,0 -0.048,0.016 h -0.016 q 0,0.016 -0.016,0.016 0,0 -0.016,0.016 v 0.032 q -0.016,0.016 -0.032,0 -0.016,0.032 -0.032,0.048 0,0.016 -0.032,0.0799 -0.032,0.064 -0.048,0.0799 h 0.016 q 0,0 0,0.016 l -0.032,0.0639 q -0.016,0.048 -0.016,0.0639 0,0.016 0.016,0.016 0,0.016 -0.016,0.064 0,0.048 0,0.0639 0.016,0.048 0.064,0.28776 0.064,0.2398 0.0959,0.35171 0.048,0.1279 0.15987,0.33572 0.12789,0.20783 0.28776,0.38368 0.0639,0.064 0.15986,0.14388 0.048,0.016 0.0799,0.032 0.0959,0.048 0.25579,0.12789 0.17585,0.0959 0.20782,0.11191 l 0.11191,0.048 q -0.016,0.032 -0.032,0.048 0.048,0.016 0.1119,0.048 0.016,-0.016 0.016,-0.016 0.016,0 0.032,0 h 0.032 q 0.016,0 0.032,0 h 0.032 q 0.11191,0 0.30375,0.032 0.20783,0.032 0.27177,0.016 0.048,0 0.14388,0 0.11191,0.016 0.1279,0.016 0.016,0 0.048,-0.032 l 0.016,-0.016 q 0.048,-0.016 0.1279,-0.032 0.032,0 0.048,0 0.016,0.016 0.032,0.016 l 0.016,-0.016 q 0.016,0 0.0639,-0.016 0.064,-0.016 0.0959,-0.016 h 0.048 v 0.016 q 0.032,-0.032 0.12789,-0.048 0.15987,-0.016 0.30375,-0.0799 h 0.016 q 0.032,-0.016 0.032,-0.016 0.016,0 0.016,-0.016 0.016,0 0.032,-0.016 0.016,0 0.032,0 0.032,0 0.048,0 0.0639,-0.032 0.12789,-0.0639 0.016,-0.016 0.032,-0.032 0.016,0 0.016,-0.016 0.016,0 0.032,-0.032 l 0.016,-0.016 q 0.048,-0.032 0.22382,-0.0639 h 0.016 q 0.28776,-0.2398 0.52756,-0.49559 l 0.016,-0.048 q 0.1279,-0.27177 0.14388,-0.30374 l 0.048,-0.23981 q 0.016,-0.032 0.032,-0.12789 0.032,-0.0959 0.032,-0.14388 0.016,-0.25579 0,-0.60749 -0.016,-0.1279 -0.016,-0.25579 -0.032,-0.14388 -0.30375,-0.57552 -0.19184,-0.30375 -1.85445,-0.89526 -0.064,-0.032 -0.1279,-0.048 -0.0639,-0.016 -0.12789,-0.032 -0.0639,-0.016 -0.14388,-0.048 -0.0639,-0.048 -0.0959,-0.048 -0.0799,-0.032 -0.15987,-0.048 -0.0799,-0.032 -0.14388,-0.048 -0.0639,-0.016 -0.0799,-0.016 l -0.11191,-0.0639 q -0.30374,-0.11191 -0.62348,-0.22382 l -0.17585,-0.0799 q -1.3269,-0.68743 -1.74255,-1.199 -0.11191,-0.1279 -0.27178,-0.70342 l -0.032,-0.0799 q -0.016,-0.0639 0.016,-0.2398 0.0799,-0.54355 0.17585,-0.83131 0.11191,-0.28776 0.35171,-0.65545 0.17585,-0.25579 0.59151,-0.47961 0.14388,-0.0639 0.31973,-0.14388 0.19184,-0.17585 0.39967,-0.27177 0.22381,-0.0799 1.02315,-0.19184 l 0.1119,-0.032 q 0.1279,0 0.35171,0 0.89526,0 2.22215,-0.0799 0.17585,-0.032 0.52756,-0.016 0.35171,0.016 0.55954,0.15986 0.22381,0.016 0.2398,0.048 0.032,0.032 0.0639,0.17586 0,0.032 -0.032,0.0959 0.064,0.12789 0.0959,0.33572 l 0.048,-0.016 q 0.048,0.016 -0.032,0.064 z m 0,0 q -0.016,0 -0.016,0.016 z m -4.65213,1.11907 0.016,0.016 q 0,-0.016 -0.016,-0.016 z" />
    <path
       inkscape:connector-curvature="0"
       id="path62"
       style="font-style:normal;font-variant:normal;font-weight:normal;font-stretch:normal;font-size:15.98669529px;line-height:1.25;font-family:BlackPearl;-inkscape-font-specification:BlackPearl;letter-spacing:0px;word-spacing:0px;fill:#ffffff;fill-opacity:1;stroke:none;stroke-width:0.53288984;stroke-miterlimit:4;stroke-dasharray:none;stroke-opacity:1"
       d="m 119.34319,282.9748 q 0.0799,-0.032 0.25579,0 0.19184,0.016 0.22381,0.0799 0.048,0.0639 0.032,0.22381 0,0.14388 -0.064,0.19184 -0.048,0.064 -0.33572,0.11191 -0.46361,0.11191 -0.60749,0.6075 -0.0799,0.25578 0.032,1.98235 v 0.20782 l 0.57552,-0.49558 q 0.54355,-0.47961 0.91124,-0.75138 0.31974,-0.25579 0.38368,-0.35171 0.0639,-0.0959 0.11191,-0.0959 0.064,0 0.4796,-0.38368 0.33572,-0.33572 0.30375,-0.4796 -0.064,0 0.016,-0.032 0.14389,-0.0959 -0.15986,-0.19184 -0.032,-0.016 -0.064,-0.016 -0.30375,-0.0799 -0.39967,-0.12789 -0.0799,-0.064 -0.0799,-0.17586 0,-0.12789 0.0959,-0.22381 0.0799,-0.064 0.15987,-0.064 0.0959,0 0.43164,0.048 0.35171,0.032 1.08709,0.032 0.73539,-0.016 1.15105,-0.0639 0.20782,-0.032 0.31973,0.048 0.12789,0.0639 0.11191,0.20783 0,0.14388 -0.0959,0.20782 -0.0959,0.048 -0.33572,0.0799 -0.28777,0.048 -0.41566,0.0959 -0.19184,0.0799 -0.57552,0.36769 -0.38368,0.28776 -0.59151,0.49559 -0.25578,0.25579 -0.54355,0.4796 -0.22381,0.15987 -0.70341,0.59151 l -0.43164,0.36769 0.39967,0.44763 q 0.41565,0.44763 1.16703,1.10308 0.70341,0.6075 0.92722,0.87927 0.25579,0.27177 0.33572,0.36769 0.1279,0.14388 0.33573,0.43164 0.31973,0.46362 0.57552,0.62349 0.19184,0.12789 0.20782,0.20782 0.048,0.0959 0.2398,0.2398 0.19184,0.14388 0.19184,0.20783 0,0.0639 0.048,0.0639 0.064,0 0.2398,0.15986 0.17586,0.14388 0.54355,0.33572 0.30375,0.1279 0.44763,0.1279 0.15987,0 0.63947,-0.14388 0.39966,-0.1279 0.55953,0.27177 0.0799,0.20783 0.064,0.27178 -0.016,0.0799 -0.14388,0.19184 -0.20783,0.17585 -0.54355,0.2398 -0.31973,0.0639 -1.05512,0.0799 h -0.86328 l -0.38368,-0.19184 q -0.35171,-0.17585 -0.99118,-0.57552 -0.63947,-0.38368 -0.94321,-0.6075 -0.22382,-0.19184 -0.91125,-0.86328 -0.68742,-0.68743 -0.89525,-0.94321 -0.17585,-0.22382 -0.76736,-0.83131 -0.57552,-0.6075 -0.62348,-0.6075 -0.032,0 -0.14388,-0.1119 l -0.1279,-0.11191 -0.1119,0.12789 q -0.11191,0.11191 -0.15987,0.35171 -0.032,0.22382 -0.032,0.81532 0,0.3677 0.0639,0.55954 0.0639,0.19184 0.2398,0.36769 0.15987,0.15987 0.30375,0.11191 0.31973,-0.0639 0.36769,0.15987 0.032,0.12789 -0.016,0.30374 -0.048,0.15987 -0.11191,0.17586 -0.032,0 -1.82248,0.016 h -1.75854 l -0.048,-0.14388 q -0.048,-0.14388 -0.016,-0.25578 0.032,-0.11191 0.1279,-0.14388 0.12789,-0.032 0.30375,-0.19184 0.17585,-0.15987 0.25578,-0.31974 0.064,-0.14388 0.19184,-0.36769 0.11191,-0.17586 0.0959,-0.35171 -0.016,-0.17585 0.032,-0.51157 0.048,-0.33572 0,-0.65546 -0.048,-0.31973 -0.032,-1.16703 0,-1.75853 -0.0639,-1.99833 -0.11191,-0.3677 -0.62348,-0.46362 -0.30375,-0.0639 -0.35171,-0.11191 -0.0799,-0.0639 -0.064,-0.19184 0.016,-0.14388 0.11191,-0.2398 0.0959,-0.0799 0.17585,-0.0799 0.0799,-0.016 0.43164,0.016 0.39967,0.048 1.48677,0.032 1.08709,-0.032 1.21498,-0.0799 z" />
    <g
       style="display:inline"
       id="g1597"
       transform="matrix(0.4699733,0,0,0.4699733,1.1757844,271.41623)">
      <path
         id="path1477"
         d="m 40.895084,34.76815 c 0.511443,-0.388699 0.81142,-0.988794 0.81142,-1.629801 v -9.137798 c 0,-3.286811 -0.797851,-6.382819 -2.209367,-9.117339 C 38.330976,12.63286 36.748908,10.627999 34.853158,8.9777415 31.36852,5.9499939 26.81333,4.1224347 21.835277,4.1156162 c -4.978052,0 -9.526495,1.8343777 -13.0179506,4.8621253 -1.895751,1.6502575 -3.484638,3.6482985 -4.64391,5.9054705 -1.4115861,2.727702 -2.2094376,5.830461 -2.2094376,9.117339 v 9.137798 c 0,0.641007 0.300048,1.241102 0.8114897,1.629801 l 1.0501669,0.797851 6.09641,4.630202 1.2138266,0.920599 v 4.882653 c 0,1.131997 0.913779,2.045774 2.045775,2.045774 h 8.660449 8.660448 c 1.131997,0 2.045776,-0.913777 2.045776,-2.045774 v -4.889402 l 1.213827,-0.920601 6.09641,-4.63027 z M 10.16072,32.21093 c -0.3750606,0 -0.6955646,-0.197759 -0.8728656,-0.490989 -0.03411,-0.06129 -0.06818,-0.122748 -0.08874,-0.184116 -0.16359,-0.450072 0.0069,-1.084194 0.08874,-1.541154 0.09541,-0.518263 0.231787,-1.029704 0.415976,-1.520692 0.3682386,-0.981973 0.9342356,-1.902571 1.6979916,-2.625411 0.83188,-0.784214 1.875293,-1.329754 2.973194,-1.650328 0.08182,-0.02728 0.170489,-0.04775 0.259132,-0.06818 1.070621,-0.286408 2.202617,-0.381876 3.307336,-0.340961 0.545539,0.02046 0.981972,0.470527 0.981972,1.022887 v 3.061912 3.320906 c 0,0.143269 -0.02728,0.272769 -0.08182,0.395587 -0.02728,0.06131 -0.05455,0.115859 -0.09548,0.170488 -0.184055,0.272768 -0.497807,0.45007 -0.84552,0.45007 z m 10.917552,5.714464 c 0,0.300045 -0.245494,0.545539 -0.545539,0.545539 h -2.004795 c -0.43643,0 -0.695563,-0.477346 -0.456888,-0.845519 l 2.004791,-3.07555 c 0.293298,-0.456888 1.002431,-0.245493 1.002431,0.300047 z m 4.057455,0.545539 h -2.004793 c -0.300048,0 -0.54554,-0.245494 -0.54554,-0.545539 v -3.075483 c 0,-0.54554 0.709133,-0.750117 1.002362,-0.300047 l 2.004859,3.07555 c 0.238742,0.361422 -0.02728,0.845519 -0.456888,0.845519 z m 9.335623,-6.941929 c -0.02046,0.06818 -0.05455,0.129559 -0.08864,0.18412 -0.177371,0.293229 -0.504626,0.490985 -0.872933,0.490985 h -7.739849 c -0.354535,0 -0.6614,-0.177369 -0.845519,-0.450138 -0.03411,-0.05454 -0.06819,-0.115918 -0.09548,-0.17049 -0.05455,-0.122748 -0.08185,-0.25913 -0.08185,-0.395516 V 27.86699 24.805146 c 0,-0.545539 0.429683,-1.002428 0.981974,-1.022886 1.104718,-0.04098 2.236714,0.05455 3.307335,0.340962 0.08864,0.02046 0.17049,0.04767 0.259132,0.06819 1.097966,0.320437 2.141245,0.866047 2.973262,1.650259 0.770576,0.722909 1.329753,1.643508 1.697925,2.625412 0.184121,0.490984 0.320504,1.002429 0.416042,1.52076 0.0817,0.456822 0.245425,1.09108 0.08857,1.541152 z"
         inkscape:connector-curvature="0"
         style="fill:#ffffff;stroke-width:0.06819251" />
      <rect
         y="42.220314"
         x="16.375078"
         height="1.8597792"
         width="2.6698391"
         id="rect1570"
         style="opacity:1;fill:#ffffff;fill-opacity:1;stroke:#00a69c;stroke-width:0.22238922;stroke-miterlimit:4;stroke-dasharray:none;stroke-opacity:1" />
      <rect
         style="opacity:1;fill:#ffffff;fill-opacity:1;stroke:#00a69c;stroke-width:0.22238922;stroke-miterlimit:4;stroke-dasharray:none;stroke-opacity:1"
         id="rect1572"
         width="2.6698391"
         height="1.8597792"
         x="16.375078"
         y="44.080097" />
      <rect
         style="opacity:1;fill:#ffffff;fill-opacity:1;stroke:#00a69c;stroke-width:0.22238922;stroke-miterlimit:4;stroke-dasharray:none;stroke-opacity:1"
         id="rect1574"
         width="2.6698391"
         height="1.8597792"
         x="19.044918"
         y="42.220314" />
      <rect
         y="44.080097"
         x="19.044918"
         height="1.8597792"
         width="2.6698391"
         id="rect1576"
         style="opacity:1;fill:#ffffff;fill-opacity:1;stroke:#00a69c;stroke-width:0.22238922;stroke-miterlimit:4;stroke-dasharray:none;stroke-opacity:1" />
      <rect
         style="opacity:1;fill:#00a69c;fill-opacity:1;stroke:#00a69c;stroke-width:0.22238922;stroke-miterlimit:4;stroke-dasharray:none;stroke-opacity:1"
         id="rect1578"
         width="2.6698391"
         height="1.8597792"
         x="21.714758"
         y="42.220314" />
      <rect
         y="44.080097"
         x="21.714758"
         height="1.8597792"
         width="2.6698391"
         id="rect1580"
         style="opacity:1;fill:#ffffff;fill-opacity:1;stroke:#00a69c;stroke-width:0.22238922;stroke-miterlimit:4;stroke-dasharray:none;stroke-opacity:1" />
      <rect
         y="42.220314"
         x="24.384596"
         height="1.8597792"
         width="2.6698391"
         id="rect1582"
         style="opacity:1;fill:#ffffff;fill-opacity:1;stroke:#00a69c;stroke-width:0.22238922;stroke-miterlimit:4;stroke-dasharray:none;stroke-opacity:1" />
      <rect
         style="opacity:1;fill:#ffffff;fill-opacity:1;stroke:#00a69c;stroke-width:0.22238922;stroke-miterlimit:4;stroke-dasharray:none;stroke-opacity:1"
         id="rect1584"
         width="2.6698391"
         height="1.8597792"
         x="24.384596"
         y="44.080097" />
    </g>
  </g>
</svg>
